<svg width="126" height="24" viewBox="0 0 126 24" fill="none" xmlns="http://www.w3.org/2000/svg">
<path d="M20.2 5.99995L2.99995 11L2.09995 8.59995C1.79995 7.49995 2.39995 6.39995 3.39995 6.09995L16.9 2.09995C18 1.79995 19.1 2.39995 19.4 3.39995L20.2 5.99995Z" stroke="#FEFBBB" stroke-width="2" stroke-linecap="round" stroke-linejoin="round"/>
<path d="M6.2002 5.2998L9.3002 9.1998" stroke="#FEFBBB" stroke-width="2" stroke-linecap="round" stroke-linejoin="round"/>
<path d="M12.4004 3.40039L15.5004 7.40039" stroke="#FEFBBB" stroke-width="2" stroke-linecap="round" stroke-linejoin="round"/>
<path d="M3 11H21V19C21 19.5304 20.7893 20.0391 20.4142 20.4142C20.0391 20.7893 19.5304 21 19 21H5C4.46957 21 3.96086 20.7893 3.58579 20.4142C3.21071 20.0391 3 19.5304 3 19V11Z" stroke="#FEFBBB" stroke-width="2" stroke-linecap="round" stroke-linejoin="round"/>
<path d="M37.8576 19C36.5559 19 35.4712 18.8203 34.6034 18.4608C33.748 18.089 33.1033 17.6118 32.6694 17.0292C32.2479 16.4343 32.0248 15.8083 32 15.1514C32 15.0398 32.0372 14.9469 32.1116 14.8725C32.186 14.7981 32.2789 14.761 32.3905 14.761H35.3472C35.5207 14.761 35.6571 14.7919 35.7563 14.8539C35.8555 14.9035 35.9608 14.9779 36.0724 15.077C36.184 15.2134 36.3141 15.3435 36.4629 15.4675C36.6117 15.579 36.8038 15.672 37.0394 15.7463C37.2749 15.8083 37.5476 15.8393 37.8576 15.8393C38.4278 15.8393 38.8679 15.7649 39.1778 15.6162C39.4878 15.4551 39.6427 15.2382 39.6427 14.9655C39.6427 14.7548 39.556 14.5812 39.3824 14.4449C39.2212 14.3085 38.9423 14.1846 38.5456 14.073C38.1489 13.9615 37.6096 13.8437 36.9278 13.7198C35.9732 13.5587 35.1488 13.3232 34.4546 13.0133C33.7604 12.691 33.2273 12.2634 32.8554 11.7304C32.4959 11.185 32.3161 10.5157 32.3161 9.72244C32.3161 8.91678 32.5393 8.20407 32.9856 7.58433C33.4442 6.96459 34.0765 6.48119 34.8823 6.13413C35.7005 5.78707 36.6489 5.61355 37.7274 5.61355C38.62 5.61355 39.4072 5.7313 40.089 5.9668C40.7833 6.2023 41.3659 6.51217 41.837 6.89641C42.3081 7.26826 42.6676 7.67109 42.9155 8.10491C43.1635 8.53873 43.2936 8.95396 43.306 9.3506C43.306 9.46215 43.2626 9.56131 43.1759 9.64807C43.1015 9.72244 43.0147 9.75963 42.9155 9.75963H39.8101C39.6613 9.75963 39.5312 9.73484 39.4196 9.68526C39.3204 9.63568 39.2274 9.55511 39.1407 9.44356C39.0787 9.27003 38.9237 9.1151 38.6758 8.97875C38.4278 8.84241 38.1117 8.77424 37.7274 8.77424C37.3059 8.77424 36.9836 8.84861 36.7604 8.99734C36.5373 9.13369 36.4257 9.3382 36.4257 9.61089C36.4257 9.79681 36.4939 9.95795 36.6303 10.0943C36.7666 10.2306 37.0084 10.3546 37.3555 10.4661C37.7026 10.5653 38.1861 10.6768 38.8059 10.8008C39.9836 10.9743 40.932 11.2222 41.651 11.5445C42.3825 11.8668 42.9155 12.2882 43.2502 12.8088C43.585 13.3293 43.7523 13.9801 43.7523 14.761C43.7523 15.641 43.4982 16.3971 42.9899 17.0292C42.4816 17.6614 41.7812 18.151 40.8886 18.498C40.0084 18.8327 38.9981 19 37.8576 19Z" fill="white"/>
<path d="M48.1536 19C47.4718 19 46.8582 18.8699 46.3127 18.6096C45.7796 18.3493 45.3581 18.0022 45.0482 17.5684C44.7507 17.1222 44.6019 16.6264 44.6019 16.081C44.6019 15.1886 44.9614 14.4883 45.6804 13.9801C46.4119 13.4595 47.385 13.1 48.5999 12.9017L50.7384 12.5671V12.4369C50.7384 12.0527 50.6764 11.7676 50.5524 11.5817C50.4409 11.3834 50.1991 11.2842 49.8272 11.2842C49.5669 11.2842 49.3561 11.3338 49.195 11.4329C49.0338 11.5321 48.8851 11.6746 48.7487 11.8606C48.6247 11.9969 48.4636 12.0651 48.2652 12.0651H45.6432C45.5069 12.0651 45.4015 12.0279 45.3271 11.9535C45.2527 11.8791 45.2218 11.78 45.2341 11.656C45.2465 11.4329 45.3395 11.1726 45.5131 10.8752C45.6866 10.5653 45.9532 10.2678 46.3127 9.98274C46.6846 9.68526 47.1619 9.44356 47.7445 9.25764C48.3272 9.05932 49.0276 8.96016 49.8458 8.96016C50.6764 8.96016 51.3892 9.05312 51.9843 9.23904C52.5794 9.42497 53.069 9.68526 53.4533 10.0199C53.8376 10.3546 54.1228 10.7636 54.3087 11.247C54.4947 11.718 54.5877 12.2448 54.5877 12.8274V18.3307C54.5877 18.467 54.5381 18.5848 54.4389 18.6839C54.3521 18.7707 54.2405 18.8141 54.1042 18.8141H51.3892C51.2653 18.8141 51.1537 18.7707 51.0545 18.6839C50.9553 18.5848 50.9058 18.467 50.9058 18.3307V17.7357C50.7446 17.9836 50.5277 18.2005 50.2549 18.3865C49.9946 18.5724 49.6847 18.7211 49.3251 18.8327C48.978 18.9442 48.5875 19 48.1536 19ZM49.2322 16.5644C49.5421 16.5644 49.8086 16.5024 50.0318 16.3785C50.2673 16.2421 50.4533 16.0376 50.5896 15.7649C50.726 15.4923 50.7942 15.1514 50.7942 14.7424V14.6122L49.4553 14.8725C48.9966 14.9593 48.6743 15.0894 48.4884 15.2629C48.3024 15.4241 48.2094 15.6038 48.2094 15.8021C48.2094 15.9509 48.2528 16.081 48.3396 16.1926C48.4264 16.3041 48.5441 16.3971 48.6929 16.4714C48.8541 16.5334 49.0338 16.5644 49.2322 16.5644Z" fill="white"/>
<path d="M59.0074 18.8141C58.8215 18.8141 58.6789 18.7707 58.5797 18.6839C58.4929 18.5848 58.431 18.4732 58.3938 18.3493L55.6974 9.74104C55.685 9.67906 55.6788 9.62328 55.6788 9.57371C55.6788 9.46215 55.716 9.36299 55.7904 9.27623C55.8772 9.18946 55.9826 9.14608 56.1065 9.14608H58.5053C58.6789 9.14608 58.8153 9.19566 58.9144 9.29482C59.0136 9.38159 59.0694 9.46835 59.0818 9.55511L60.4393 14.1474L61.8711 9.57371C61.8959 9.48694 61.9579 9.39398 62.0571 9.29482C62.1562 9.19566 62.2988 9.14608 62.4848 9.14608H63.9538C64.1398 9.14608 64.2823 9.19566 64.3815 9.29482C64.4807 9.39398 64.5427 9.48694 64.5675 9.57371L65.9993 14.1474L67.3568 9.55511C67.3816 9.46835 67.4436 9.38159 67.5427 9.29482C67.6419 9.19566 67.7783 9.14608 67.9518 9.14608H70.3506C70.4622 9.14608 70.5614 9.18946 70.6482 9.27623C70.735 9.36299 70.7783 9.46215 70.7783 9.57371C70.7783 9.62328 70.7721 9.67906 70.7597 9.74104L68.0634 18.3493C68.0138 18.4732 67.9456 18.5848 67.8589 18.6839C67.7721 18.7707 67.6357 18.8141 67.4498 18.8141H65.3671C65.1811 18.8141 65.0385 18.7707 64.9394 18.6839C64.8526 18.5848 64.7844 18.4732 64.7348 18.3493L63.2286 13.9243L61.7038 18.3493C61.6666 18.4732 61.5984 18.5848 61.4992 18.6839C61.4124 18.7707 61.2761 18.8141 61.0901 18.8141H59.0074Z" fill="white"/>
<path d="M72.7967 18.8141C72.6603 18.8141 72.5425 18.7707 72.4434 18.6839C72.3442 18.5848 72.2946 18.467 72.2946 18.3307V6.28287C72.2946 6.14652 72.3442 6.03497 72.4434 5.94821C72.5425 5.84905 72.6603 5.79947 72.7967 5.79947H75.2699C75.493 5.79947 75.6604 5.86144 75.7719 5.98539C75.8835 6.10934 75.9579 6.1961 75.9951 6.24568L78.9704 11.4143L81.9456 6.24568C81.9828 6.1961 82.0572 6.10934 82.1688 5.98539C82.2804 5.86144 82.4477 5.79947 82.6709 5.79947H85.1441C85.2804 5.79947 85.392 5.84905 85.4788 5.94821C85.5779 6.03497 85.6275 6.14652 85.6275 6.28287V18.3307C85.6275 18.467 85.5779 18.5848 85.4788 18.6839C85.392 18.7707 85.2804 18.8141 85.1441 18.8141H82.3547C82.2184 18.8141 82.1006 18.7707 82.0014 18.6839C81.9146 18.5848 81.8713 18.467 81.8713 18.3307V12.3068L80.1977 15.2444C80.1357 15.3435 80.0551 15.4427 79.9559 15.5418C79.8567 15.641 79.7142 15.6906 79.5282 15.6906H78.3939C78.2203 15.6906 78.084 15.641 77.9848 15.5418C77.8856 15.4427 77.805 15.3435 77.7431 15.2444L76.0695 12.3068V18.3307C76.0695 18.467 76.0199 18.5848 75.9207 18.6839C75.8339 18.7707 75.7224 18.8141 75.586 18.8141H72.7967Z" fill="white"/>
<path d="M92.6156 19C91.5247 19 90.6011 18.8389 89.8449 18.5166C89.1011 18.1943 88.5308 17.7233 88.1341 17.1036C87.7374 16.4714 87.5143 15.7154 87.4647 14.8353C87.4523 14.575 87.4461 14.29 87.4461 13.9801C87.4461 13.6702 87.4523 13.3851 87.4647 13.1248C87.5143 12.2324 87.7498 11.4763 88.1713 10.8566C88.5928 10.2368 89.1755 9.76583 89.9193 9.44356C90.6755 9.12129 91.5743 8.96016 92.6156 8.96016C93.657 8.96016 94.5496 9.12129 95.2934 9.44356C96.0496 9.76583 96.6385 10.2368 97.06 10.8566C97.4815 11.4763 97.717 12.2324 97.7666 13.1248C97.7914 13.3851 97.8038 13.6702 97.8038 13.9801C97.8038 14.29 97.7914 14.575 97.7666 14.8353C97.717 15.7154 97.4939 16.4714 97.0971 17.1036C96.7004 17.7233 96.124 18.1943 95.3678 18.5166C94.624 18.8389 93.7066 19 92.6156 19ZM92.6156 16.3785C93.0743 16.3785 93.3905 16.2421 93.564 15.9695C93.7376 15.6968 93.8367 15.2877 93.8615 14.7424C93.8739 14.5564 93.8801 14.3023 93.8801 13.9801C93.8801 13.6578 93.8739 13.4037 93.8615 13.2178C93.8367 12.6848 93.7376 12.282 93.564 12.0093C93.3905 11.7242 93.0743 11.5817 92.6156 11.5817C92.1694 11.5817 91.8594 11.7242 91.6859 12.0093C91.5123 12.282 91.4069 12.6848 91.3698 13.2178C91.3574 13.4037 91.3512 13.6578 91.3512 13.9801C91.3512 14.3023 91.3574 14.5564 91.3698 14.7424C91.4069 15.2877 91.5123 15.6968 91.6859 15.9695C91.8594 16.2421 92.1694 16.3785 92.6156 16.3785Z" fill="white"/>
<path d="M102.535 18.8141C102.337 18.8141 102.194 18.7645 102.108 18.6653C102.033 18.5662 101.965 18.4608 101.903 18.3493L98.3513 9.72244C98.3389 9.67286 98.3327 9.62328 98.3327 9.57371C98.3327 9.46215 98.3761 9.36299 98.4629 9.27623C98.5497 9.18946 98.6488 9.14608 98.7604 9.14608H101.401C101.575 9.14608 101.705 9.19566 101.791 9.29482C101.878 9.38159 101.94 9.46835 101.977 9.55511L103.763 14.5936L105.566 9.55511C105.604 9.46835 105.666 9.38159 105.752 9.29482C105.839 9.19566 105.969 9.14608 106.143 9.14608H108.765C108.889 9.14608 108.988 9.18946 109.062 9.27623C109.149 9.36299 109.192 9.46215 109.192 9.57371C109.192 9.62328 109.186 9.67286 109.174 9.72244L105.641 18.3493C105.591 18.4608 105.517 18.5662 105.418 18.6653C105.331 18.7645 105.194 18.8141 105.008 18.8141H102.535Z" fill="white"/>
<path d="M110.909 18.8141C110.773 18.8141 110.655 18.7707 110.556 18.6839C110.469 18.5848 110.425 18.467 110.425 18.3307V9.62948C110.425 9.49314 110.469 9.38159 110.556 9.29482C110.655 9.19566 110.773 9.14608 110.909 9.14608H113.661C113.797 9.14608 113.915 9.19566 114.014 9.29482C114.114 9.38159 114.163 9.49314 114.163 9.62948V18.3307C114.163 18.467 114.114 18.5848 114.014 18.6839C113.915 18.7707 113.797 18.8141 113.661 18.8141H110.909ZM110.946 7.93758C110.81 7.93758 110.692 7.8942 110.593 7.80744C110.506 7.70828 110.463 7.59053 110.463 7.45418V5.50199C110.463 5.36565 110.506 5.2479 110.593 5.14874C110.692 5.04958 110.81 5 110.946 5H113.624C113.76 5 113.878 5.04958 113.977 5.14874C114.076 5.2479 114.126 5.36565 114.126 5.50199V7.45418C114.126 7.59053 114.076 7.70828 113.977 7.80744C113.878 7.8942 113.76 7.93758 113.624 7.93758H110.946Z" fill="white"/>
<path d="M120.942 19C119.392 19 118.159 18.6034 117.242 17.8101C116.337 17.0044 115.872 15.7773 115.847 14.1288C115.847 14.0792 115.847 14.0173 115.847 13.9429C115.847 13.8561 115.847 13.7942 115.847 13.757C115.884 12.7282 116.107 11.8606 116.516 11.154C116.938 10.4351 117.52 9.88977 118.264 9.51793C119.021 9.14608 119.907 8.96016 120.923 8.96016C122.064 8.96016 123.006 9.18946 123.75 9.64807C124.506 10.0943 125.07 10.6954 125.442 11.4515C125.814 12.1952 126 13.0319 126 13.9615V14.4821C126 14.606 125.95 14.7176 125.851 14.8167C125.752 14.9159 125.634 14.9655 125.498 14.9655H119.771C119.771 14.9655 119.771 14.9779 119.771 15.0027C119.771 15.0274 119.771 15.0522 119.771 15.077C119.771 15.3745 119.808 15.641 119.882 15.8765C119.969 16.0996 120.099 16.2793 120.273 16.4157C120.446 16.5396 120.657 16.6016 120.905 16.6016C121.066 16.6016 121.202 16.5768 121.314 16.5272C121.426 16.4776 121.518 16.4157 121.593 16.3413C121.68 16.2545 121.754 16.174 121.816 16.0996C121.928 15.988 122.021 15.9199 122.095 15.8951C122.169 15.8579 122.281 15.8393 122.43 15.8393H125.349C125.461 15.8393 125.554 15.8765 125.628 15.9509C125.715 16.0252 125.752 16.1182 125.74 16.2297C125.727 16.4529 125.622 16.7255 125.424 17.0478C125.225 17.3577 124.928 17.6614 124.531 17.9588C124.147 18.2563 123.651 18.5042 123.043 18.7025C122.436 18.9008 121.735 19 120.942 19ZM119.771 12.8831H122.076V12.8459C122.076 12.5113 122.033 12.2262 121.946 11.9907C121.859 11.7552 121.729 11.5817 121.556 11.4701C121.382 11.3462 121.171 11.2842 120.923 11.2842C120.675 11.2842 120.465 11.3462 120.291 11.4701C120.118 11.5817 119.987 11.7552 119.901 11.9907C119.814 12.2262 119.771 12.5113 119.771 12.8459V12.8831Z" fill="white"/>
</svg>
